<svg xmlns="http://www.w3.org/2000/svg" version="1.1" viewBox="-5.0 -10.0 110.0 135.0">
 <g>
  <path d="m62.23 81.523c-2.1211 0-3.8516 1.7266-3.8516 3.8516 0 2.1211 1.7266 3.8516 3.8516 3.8516 2.1211 0 3.8516-1.7266 3.8516-3.8516 0-2.1211-1.7266-3.8516-3.8516-3.8516zm0 5.6992c-1.0195 0-1.8516-0.82812-1.8516-1.8516 0-1.0195 0.82812-1.8516 1.8516-1.8516 1.0195 0 1.8516 0.82812 1.8516 1.8516 0 1.0195-0.82812 1.8516-1.8516 1.8516z"/>
  <path d="m85.113 81.523c-2.1211 0-3.8516 1.7266-3.8516 3.8516 0 2.1211 1.7266 3.8516 3.8516 3.8516 2.1211 0 3.8516-1.7266 3.8516-3.8516 0-2.1211-1.7266-3.8516-3.8516-3.8516zm0 5.6992c-1.0195 0-1.8516-0.82812-1.8516-1.8516 0-1.0195 0.82812-1.8516 1.8516-1.8516 1.0195 0 1.8516 0.82812 1.8516 1.8516 0 1.0195-0.82812 1.8516-1.8516 1.8516z"/>
  <path d="m75.867 82.27h-4.3945c-1.7109 0-3.1016 1.3906-3.1016 3.1016 0 1.7109 1.3906 3.1016 3.1016 3.1016h4.3945c1.7109 0 3.1016-1.3906 3.1016-3.1016 0-1.7109-1.3906-3.1016-3.1016-3.1016zm0 4.207h-4.3945c-0.60938 0-1.1016-0.49609-1.1016-1.1016 0-0.60938 0.49609-1.1016 1.1016-1.1016h4.3945c0.60937 0 1.1016 0.49609 1.1016 1.1016 0 0.60938-0.49609 1.1016-1.1016 1.1016z"/>
  <path d="m92.555 56.211v-2.4727c0-1.9922-1.6211-3.6172-3.6172-3.6172h-0.36719-0.015624-29.766-0.015624-0.36719c-1.9961 0-3.6172 1.6211-3.6172 3.6172v2.457c-2.0938 0.42578-3.6758 2.2773-3.6758 4.4961v4.4688c0 1.8828 1.5312 3.4102 3.4102 3.4102h0.26562v22.738c0 0.55078 0.44922 1 1 1h1.6172v1.3594c0 1.6523 1.3477 3 3 3h2.3242c1.6523 0 3-1.3477 3-3v-1.3594h15.883v1.3594c0 1.6523 1.3477 3 3 3h2.3242c1.6523 0 3-1.3477 3-3v-1.3594h1.6172c0.55078 0 1-0.44922 1-1v-22.738h0.26562c1.8828 0 3.4102-1.5312 3.4102-3.4102v-4.4688c0-2.1953-1.5547-4.0352-3.6758-4.4805zm-33.777-4.0898h29.793c1.0977 0.007812 1.9844 0.89844 1.9844 2v0.42578l-33.766-0.003906v-0.42578c0-1.0977 0.89063-1.9922 1.9844-2zm-1.9844 15.449v-11.023h33.766v18.934h-33.77v-7.9102zm-2.2656-1c-0.77734 0-1.4102-0.63281-1.4102-1.4102v-4.4688c0-1.0938 0.67969-2.0273 1.6758-2.4062v8.2852zm9.207 27.102c0 0.55078-0.44922 1-1 1h-2.3242c-0.55078 0-1-0.44922-1-1v-1.3594h4.3242zm24.207 0c0 0.55078-0.44922 1-1 1h-2.3242c-0.55078 0-1-0.44922-1-1v-1.3594h4.3242zm1-3.3594-32.152-0.003906v-12.828h33.766v12.828h-1.6172zm5.293-25.148c0 0.77734-0.63281 1.4102-1.4102 1.4102h-0.26562v-8.3008c0.98047 0.37109 1.6758 1.3164 1.6758 2.4219z"/>
  <path d="m14.602 25.91h22.973c0.55078 0 1-0.44922 1-1v-11.148c0-0.55078-0.44922-1-1-1h-22.973c-0.55078 0-1 0.44922-1 1v11.148c0 0.55078 0.44922 1 1 1zm1-11.148h20.973v9.1484h-20.973z"/>
  <path d="m21.023 34.734c0-2.1367-1.7383-3.8711-3.8711-3.8711-2.1367 0-3.8711 1.7383-3.8711 3.8711 0 2.1367 1.7383 3.8711 3.8711 3.8711 2.1367 0 3.8711-1.7383 3.8711-3.8711zm-5.7422 0c0-1.0312 0.83984-1.8711 1.8711-1.8711s1.8711 0.83984 1.8711 1.8711-0.83984 1.8711-1.8711 1.8711-1.8711-0.83984-1.8711-1.8711z"/>
  <path d="m35.023 30.863c-2.1367 0-3.8711 1.7383-3.8711 3.8711 0 2.1367 1.7383 3.8711 3.8711 3.8711 2.1367 0 3.8711-1.7383 3.8711-3.8711 0-2.1367-1.7383-3.8711-3.8711-3.8711zm0 5.7422c-1.0312 0-1.8711-0.83984-1.8711-1.8711s0.83984-1.8711 1.8711-1.8711 1.8711 0.83984 1.8711 1.8711-0.83984 1.8711-1.8711 1.8711z"/>
  <path d="m96.215 30.883c-9.1562-1.9297-17.41-4.6602-25.234-8.3438h-0.003907c-1.1211-0.52734-2.3047-1.1133-3.6211-1.793-3.793-1.9492-7.0898-3.9414-9.6133-5.5039l-0.10547-0.066407c-1.4297-0.89062-2.8008-1.7617-4.1172-2.6016-7.7344-4.9258-13.859-8.8242-21.535-9.2344-0.089844-0.007813-0.17969-0.011719-0.26953-0.011719h-11.258c-0.79297 0-1.5664 0.32422-2.1055 0.87891l-3.6172 3.6094h-2.1172c-2.1953 0-3.9805 1.7852-3.9805 3.9805v28.711c0 0.23438 0.085937 0.44922 0.22266 0.62109l3.4922 6.0547c0.17969 0.30859 0.50781 0.5 0.86719 0.5h1.8594l-11.992 25.719c-0.23438 0.5-0.015626 1.0977 0.48437 1.3281 0.13672 0.0625 0.28125 0.09375 0.42188 0.09375 0.375 0 0.73828-0.21484 0.90625-0.57812l12.391-26.566h17.602l12.391 26.566c0.16797 0.36328 0.53125 0.57812 0.90625 0.57812 0.14062 0 0.28516-0.03125 0.42188-0.09375 0.5-0.23438 0.71875-0.82812 0.48438-1.3281l-11.996-25.719h58.914c0.55078 0 1-0.44922 1-1v-14.82c0-0.47266-0.33203-0.88281-0.79297-0.98047zm-85.578 9.3242v-28.41c0-1.0898 0.88672-1.9805 1.9805-1.9805h2.5312c0.26562 0 0.51953-0.10547 0.70703-0.29297l3.9219-3.9102c0.17578-0.17969 0.42578-0.28516 0.68359-0.28516h11.234 0.03125c0.097657 0 0.19141 0.027344 0.28516 0.058594 0.035156 0.011719 0.074219 0.015625 0.10938 0.03125 0.10938 0.050781 0.21484 0.11328 0.30078 0.20312l3.9141 3.9062c0.1875 0.18359 0.4375 0.28906 0.70312 0.28906h2.5195c0.09375 0 0.16016 0.003906 0.21875 0.015625 0.027344 0.007813 0.058594 0.011719 0.089844 0.015625 0.070312 0.019532 0.14062 0.03125 0.19531 0.035156 0.050781 0.019532 0.097656 0.03125 0.14844 0.042969 0.035156 0.015625 0.074218 0.03125 0.11328 0.042969 0.0625 0.019531 0.12109 0.054688 0.17578 0.082031 0.058594 0.03125 0.10938 0.058594 0.16016 0.10156 0.03125 0.023437 0.1875 0.14453 0.22266 0.16406 0.011719 0.015625 0.042969 0.046875 0.0625 0.070313 0.035157 0.046875 0.074219 0.089843 0.125 0.13281l0.10938-0.09375c0.003906 0.058594 0.011718 0.11719 0.027343 0.17578l-0.039062 0.046876c0.046875 0.058593 0.089843 0.11719 0.125 0.1875 0.003906 0.007812 0.007812 0.015624 0.011719 0.027343 0.042968 0.082031 0.074218 0.17188 0.10937 0.26562 0.003907 0.015625 0.011719 0.03125 0.015626 0.042969 0.015624 0.039063 0.023437 0.074219 0.058593 0.20312l0.035157 0.21094c0.007812 0.066406 0.015624 0.14453 0.015624 0.21094v28.41l-3.1602 5.4766h-5.6172v-3.8203c0-0.55078-0.44922-1-1-1s-1 0.44922-1 1v3.8203h-3.6719v-3.8203c0-0.55078-0.44922-1-1-1-0.55078 0-1 0.44922-1 1v3.8203h-3.6719v-3.8203c0-0.55078-0.44922-1-1-1s-1 0.44922-1 1v3.8203h-5.6172l-3.1602-5.4766zm30.605-29.828 0.58984-0.50781-0.42969 0.50781zm53.77 35.309-54.324-0.003906 2.6133-4.5273c0.14844-0.17578 0.23828-0.39844 0.23828-0.64453v-28.715c0-0.13281-0.011718-0.27344-0.027343-0.42969l-0.03125-0.23828c-0.007813-0.054687-0.027344-0.15234-0.042969-0.20312l-0.027344-0.11328c-0.027344-0.11328-0.054687-0.21094-0.097656-0.32031 0-0.003907-0.003906-0.007813-0.003906-0.015626-0.003906-0.015624-0.011719-0.035156-0.019532-0.050781-0.0625-0.15625-0.12109-0.3125-0.19531-0.46094-0.003906-0.003906-0.003906-0.011719-0.007812-0.015625-0.007813-0.015625-0.015626-0.035157-0.023438-0.050781-0.10156-0.1875-0.21484-0.35938-0.28516-0.4375-0.070313-0.10547-0.16406-0.23828-0.29688-0.36719-0.015625-0.019531-0.027344-0.03125-0.035157-0.03125-0.085937-0.10547-0.18359-0.19922-0.28516-0.28125-0.089844-0.082031-0.1875-0.15625-0.29297-0.22656-0.12891-0.10156-0.26172-0.17969-0.40625-0.26172-0.14453-0.078125-0.30078-0.15625-0.46875-0.21484-0.10156-0.042969-0.20313-0.078125-0.30859-0.10156-0.17578-0.058593-0.33984-0.09375-0.50781-0.10937-0.007812 0-0.015625-0.003907-0.019531-0.003907-0.18359-0.035156-0.37109-0.054687-0.59375-0.054687h-2.1094l-2.0039-2c5.6523 1.2188 10.789 4.4883 17 8.4414 1.3242 0.84375 2.6992 1.7188 4.1094 2.5938 0.097656 0.0625 0.19141 0.125 0.21094 0.12891 2.4805 1.5391 5.8242 3.5586 9.6797 5.5391 1.3359 0.69141 2.5391 1.2852 3.6875 1.8242 7.7383 3.6445 15.887 6.3711 24.883 8.3242v13.016z"/>
  <path d="m57.801 21.082c-2.5703-1.5273-4.9375-3.0312-6.9609-4.3281-0.39453-0.24609-0.78516-0.49609-1.168-0.73828-0.35547-0.22656-0.70312-0.44531-1.0508-0.66406-0.20312-0.13281-0.40625-0.26172-0.60547-0.38281-0.30859-0.18359-0.69141-0.1875-1.0078-0.011719-0.3125 0.17969-0.50781 0.51172-0.50781 0.87109v25.891c0 0.55078 0.44922 1 1 1h9.7891c0.55078 0 1-0.44922 1-1l0.003907-19.777c0-0.35156-0.1875-0.67969-0.48828-0.85938zm-1.5117 19.637h-7.7891l0.003906-23.074 0.097656 0.0625c0.38672 0.24609 0.78125 0.49609 1.1719 0.74219 1.8984 1.2188 4.1094 2.6211 6.5195 4.0625v18.211z"/>
  <path d="m60.398 23.176c-0.30469 0.17969-0.49219 0.50781-0.49219 0.86328v17.684c0 0.55078 0.44922 1 1 1h9.6484c0.55078 0 1-0.44922 1-1v-12.828c0-0.39453-0.23047-0.75-0.58984-0.91406-3.1719-1.4219-6.3008-2.9961-9.5742-4.8164-0.30859-0.17187-0.6875-0.16797-0.99219 0.011719zm1.5078 2.5508c2.5898 1.4023 5.1094 2.6562 7.6484 3.8125v11.184h-7.6484z"/>
  <path d="m74.168 42.719h7.8125c0.55078 0 1-0.44922 1-1v-8.4609c0-0.43359-0.27734-0.81641-0.69141-0.94922-2.6367-0.85547-5.2422-1.8086-7.7461-2.8242-0.30859-0.125-0.66016-0.089844-0.93359 0.097656-0.27734 0.1875-0.44141 0.49609-0.44141 0.82812v11.309c0 0.55078 0.44922 1 1 1zm1-10.832c1.8984 0.74219 3.8477 1.4453 5.8125 2.0977v6.7344h-5.8125z"/>
  <path d="m85.379 42.719h5.668c0.55078 0 1-0.44922 1-1v-5.8984c0-0.45703-0.30469-0.83984-0.72266-0.96094-0.035157-0.011719-0.070313-0.023437-0.10547-0.03125-1.7148-0.41016-3.5352-0.89453-5.5664-1.4766-0.30078-0.085937-0.62891-0.027343-0.87891 0.16016s-0.39844 0.48438-0.39844 0.80078v7.4062c0 0.55078 0.44922 1 1 1zm1-7.0859c1.293 0.35938 2.5078 0.67969 3.668 0.96875v4.1172h-3.668z"/>
  <path d="m32.648 52.121c0.55078 0 1-0.44922 1-1 0-0.55078-0.44922-1-1-1h-12.414c-0.55078 0-1 0.44922-1 1 0 0.55078 0.44922 1 1 1z"/>
  <path d="m16.359 58.367c0 0.55078 0.44922 1 1 1h18.168c0.55078 0 1-0.44922 1-1 0-0.55078-0.44922-1-1-1h-18.168c-0.55078 0-1 0.44922-1 1z"/>
  <path d="m13.492 65.613c0 0.55078 0.44922 1 1 1h23.902c0.55078 0 1-0.44922 1-1s-0.44922-1-1-1h-23.902c-0.55078 0-1 0.44922-1 1z"/>
  <path d="m41.855 71.859h-30.828c-0.55078 0-1 0.44922-1 1s0.44922 1 1 1h30.828c0.55078 0 1-0.44922 1-1s-0.44922-1-1-1z"/>
 </g>
<text x="0.0" y="117.5" font-size="5.0" font-weight="bold" font-family="Arbeit Regular, Helvetica, Arial-Unicode, Arial, Sans-serif" fill="#000000">Created by LOKAL</text><text x="0.0" y="122.5" font-size="5.0" font-weight="bold" font-family="Arbeit Regular, Helvetica, Arial-Unicode, Arial, Sans-serif" fill="#000000">from Noun Project</text></svg>