<svg xmlns="http://www.w3.org/2000/svg" xmlns:xlink="http://www.w3.org/1999/xlink" xml:space="preserve" version="1.1" style="shape-rendering:geometricPrecision;text-rendering:geometricPrecision;image-rendering:optimizeQuality;" viewBox="0 0 60000 75000" x="0px" y="0px" fill-rule="evenodd" clip-rule="evenodd"><defs><style type="text/css">
   
    .fil0 {fill:black;fill-rule:nonzero}
   
  </style></defs><g><path class="fil0" d="M2772.62 30000l-64.37 -6166.53 -0.2 0.01c-6.94,-125.14 -13.21,-249.08 -19.09,-372.31 -17.72,-45.21 -27.47,-94.43 -27.47,-145.92 0,-38.81 5.55,-76.32 15.86,-111.81 -190.84,-4534.18 360.83,-7757.06 1981.5,-9890.04 1714.54,-2256.53 4573.28,-3258.68 8950.3,-3258.68l0 1.56 16390.81 -12.89 16390.81 12.89 0 -1.56c4377.03,0 7235.76,1002.15 8950.3,3258.68 1694.77,2230.5 2220.66,5652.7 1950.8,10520.08l-0.2 -0.01 -64.37 6166.53 64.37 6166.53 0.2 -0.01c269.86,4867.38 -256.03,8289.58 -1950.8,10520.08 -1714.54,2256.52 -4573.27,3258.68 -8950.3,3258.68l0 -1.56 -16390.81 12.89 -16390.81 -12.89 0 1.56c-4377.02,0 -7235.76,-1002.16 -8950.3,-3258.68 -1619.25,-2131.11 -2171.38,-5350.22 -1982.02,-9878.14 -9.99,-34.97 -15.34,-71.89 -15.34,-110.06 0,-50.74 9.48,-99.27 26.71,-143.93 6.06,-128.32 12.62,-257.52 19.85,-387.95l0.2 0.01 64.37 -6166.53zm17528.09 -19152.1l0 268.03c0,50.52 -3.51,162.52 -6.98,273.6 -12.42,397.4 -24.2,774.16 336.8,1087.23 118.25,102.56 191.64,164.23 266.2,226.89 860.06,722.84 1824.17,1533.26 1790.36,3187.12 33.81,1653.86 -930.3,2464.28 -1790.36,3187.12 -74.56,62.66 -147.95,124.33 -266.2,226.89 -361,313.07 -349.22,689.83 -336.8,1087.23 3.47,111.08 6.98,223.09 6.98,273.6l0 17351.88c0,50.52 -3.51,162.52 -6.98,273.6 -12.42,397.4 -24.2,774.16 336.8,1087.23 118.25,102.56 191.64,164.23 266.2,226.89 860.06,722.84 1824.17,1533.26 1790.36,3187.12 33.81,1653.86 -930.3,2464.28 -1790.36,3187.12 -74.56,62.66 -147.95,124.33 -266.2,226.89 -361,313.07 -349.22,689.83 -336.8,1087.23 3.47,111.08 6.98,223.09 6.98,273.6l0 1584.93 9699.25 7.63 9626.26 -7.57 0 -1584.99c0,-50.51 3.51,-162.52 6.98,-273.6 12.42,-397.4 24.2,-774.16 -336.8,-1087.23 -118.25,-102.56 -191.64,-164.23 -266.2,-226.89 -860.06,-722.84 -1824.17,-1533.26 -1790.36,-3187.12 -33.81,-1653.86 930.3,-2464.28 1790.36,-3187.12 74.56,-62.66 147.95,-124.34 266.2,-226.89 361,-313.07 349.22,-689.83 336.8,-1087.23 -3.47,-111.08 -6.98,-223.08 -6.98,-273.6l1.56 0 -30.34 -12431.58c-0.33,-30.93 -1.75,-80.81 -3.26,-134.35 -3.43,-121.23 -7.42,-261.5 -2.17,-414.75 31.99,-934.24 359.4,-2194.34 2655.59,-2120.32l0 -1.24 14287.73 0c153.4,-4211.46 -361.58,-7189.78 -1828.64,-9120.59 -1546.84,-2035.81 -4204.04,-2939.94 -8315.92,-2939.94l0 -1.56 -5964.55 -4.69 0 267.46c0,125.07 1.94,187.18 3.86,248.6 18.51,592.14 36.07,1153.49 -611.8,1715.35 -57.58,49.94 -165.89,140.96 -275.58,233.15 -723.38,607.97 -1534.46,1289.65 -1505.88,2569.93l0 15.62c-28.58,1280.28 782.5,1961.96 1505.88,2569.93 109.69,92.19 218,183.22 275.58,233.15 166.54,144.11 184.73,395.96 40.62,562.5 -144.11,166.54 -395.96,184.73 -562.5,40.62 -118.25,-102.56 -191.64,-164.23 -266.2,-226.89 -860.06,-722.84 -1824.17,-1533.26 -1790.36,-3187.12 -33.81,-1653.86 930.3,-2464.28 1790.36,-3187.12 74.56,-62.66 147.95,-124.34 266.2,-226.89 361,-313.07 349.22,-689.83 336.8,-1087.23 -3.47,-111.08 -6.98,-223.08 -6.98,-273.6l0 -268.09 -9626.26 -7.57 -9699.25 7.63zm-800 38303.57l0 -1584.3c0,-125.08 -1.94,-187.18 -3.86,-248.6 -18.51,-592.14 -36.06,-1153.5 611.8,-1715.35 57.58,-49.93 165.89,-140.96 275.58,-233.15 723.38,-607.97 1534.46,-1289.65 1505.88,-2569.93l0 -15.62c28.58,-1280.28 -782.5,-1961.96 -1505.88,-2569.93 -109.69,-92.19 -218,-183.22 -275.58,-233.15 -647.86,-561.85 -630.31,-1123.21 -611.8,-1715.35 1.92,-61.42 3.86,-123.53 3.86,-248.6l0 -919.09 -16036.59 0c-151.78,4204.22 363.64,7178.23 1829.11,9106.94 1546.84,2035.8 4204.05,2939.94 8315.92,2939.94l0 1.56 5891.56 4.63zm-16000.47 -12853.07l16000.47 0 0 -12583.15 -15999.74 0c1.35,24.86 2.58,49.53 3.96,74.47l0 18.75c43.5,4167.51 43.5,8215.55 0,12383.06l0 18.75c-1.64,29.51 -3.11,58.72 -4.69,88.12zm-35.65 -13383.15l16036.12 0 0 -2249.64c0,-125.08 -1.94,-187.18 -3.86,-248.6 -18.51,-592.14 -36.06,-1153.5 611.8,-1715.35 57.58,-49.93 165.89,-140.96 275.58,-233.15 723.38,-607.97 1534.46,-1289.65 1505.88,-2569.93l0 -15.62c28.58,-1280.28 -782.5,-1961.96 -1505.88,-2569.93 -109.69,-92.19 -218,-183.22 -275.58,-233.15 -647.86,-561.85 -630.31,-1123.21 -611.8,-1715.35 1.92,-61.42 3.86,-123.53 3.86,-248.6l0 -267.4 -5891.56 4.63 0 1.56c-4111.87,0 -6769.08,904.13 -8315.92,2939.94 -1467.06,1930.8 -1982.06,4909.1 -1828.64,9120.59zm53034.36 800l-14251.35 0 -12.5 -1.56c-1600.41,-54.83 -1825.75,750.79 -1846.21,1348.12 -4.52,132.02 -0.93,258.54 2.17,367.87 1.38,48.86 2.68,94.33 3.25,149.97l26.15 10718.75 16079.22 0c-1.58,-29.4 -3.05,-58.61 -4.69,-88.12l0 -18.75c-43.5,-4167.51 -43.5,-8215.55 0,-12383.06l0 -18.75c1.38,-24.94 2.62,-49.61 3.96,-74.47zm36.85 13383.15l-16113.38 0 2.24 919.09 1.56 0c0,125.07 1.94,187.18 3.86,248.6 18.51,592.14 36.07,1153.49 -611.8,1715.35 -57.58,49.94 -165.89,140.96 -275.58,233.15 -723.38,607.97 -1534.46,1289.65 -1505.88,2569.93l0 15.62c-28.58,1280.28 782.5,1961.96 1505.88,2569.93 109.69,92.19 218,183.22 275.58,233.15 647.86,561.85 630.31,1123.21 611.8,1715.35 -1.92,61.42 -3.86,123.52 -3.86,248.6l0 1584.36 5964.55 -4.69 0 -1.56c4111.88,0 6769.08,-904.14 8315.92,-2939.94 1465.46,-1928.72 1980.92,-4902.69 1829.11,-9106.94z"/></g><text x="0" y="60015" fill="#000000" font-size="5px" font-weight="bold" font-family="'Helvetica Neue', Helvetica, Arial-Unicode, Arial, Sans-serif">Created by Olena Panasovska</text><text x="0" y="60020" fill="#000000" font-size="5px" font-weight="bold" font-family="'Helvetica Neue', Helvetica, Arial-Unicode, Arial, Sans-serif">from the Noun Project</text></svg>